<?xml version="1.0" encoding="UTF-8"?>
<svg version="1.1" xmlns="http://www.w3.org/2000/svg" width="512" height="512">
<path d="M0 0 C1.14866043 -0.00101212 1.14866043 -0.00101212 2.32052612 -0.00204468 C13.38846292 0.01348204 23.87194926 0.39480023 34.625 3.25 C35.2962793 3.41628906 35.96755859 3.58257812 36.65917969 3.75390625 C59.10367896 9.35207235 79.24755675 20.00426175 96.625 35.25 C97.47578125 35.96800781 98.3265625 36.68601563 99.203125 37.42578125 C105.44612806 42.81659525 110.61089479 48.71343012 115.625 55.25 C116.29273438 56.10207031 116.96046875 56.95414063 117.6484375 57.83203125 C139.87742897 87.13388365 147.12305438 121.41680596 146.51857758 157.54405785 C146.44633469 162.55824639 146.44189869 167.57310871 146.42472458 172.58773327 C146.40601678 176.95897846 146.36361612 181.32762977 146.27197266 185.69799805 C146.18363129 189.97623008 146.15986166 194.25066517 146.17835236 198.5297184 C146.174092 200.14165045 146.14722962 201.75370857 146.0958786 203.36482811 C145.75196421 213.32464746 145.75196421 213.32464746 150.43005371 221.76431274 C153.11971346 224.3706313 156.02118095 226.62871423 159.00070953 228.89008522 C175.25679199 242.50026594 186.16833264 269.15992893 188.43017578 289.74316406 C189.71768133 306.30971417 189.31391255 323.02023711 185.625 339.25 C185.45871094 339.98831055 185.29242188 340.72662109 185.12109375 341.48730469 C178.21184743 371.03073015 162.58982025 396.72253118 142.625 419.25 C141.86445313 420.12140625 141.10390625 420.9928125 140.3203125 421.890625 C132.30205525 430.96466701 123.90183209 439.47133879 114.41796875 447.015625 C111.55657661 449.30473871 108.78259843 451.67850025 106 454.0625 C82.48400893 473.64402667 55.26012924 489.0431883 27.74414062 502.23193359 C26.2133632 502.96734164 24.68648482 503.71088464 23.16210938 504.45947266 C20.53444788 505.74435792 17.89436261 506.99989756 15.25 508.25 C14.44159668 508.64856201 13.63319336 509.04712402 12.80029297 509.45776367 C6.01676048 512.59828797 0.07867735 513.72073835 -7.15478516 511.33203125 C-10.16278889 510.07322217 -13.07700406 508.69499186 -16 507.25 C-17.05541992 506.74597656 -18.11083984 506.24195313 -19.19824219 505.72265625 C-22.2667761 504.2506589 -25.32167896 502.7532375 -28.375 501.25 C-29.84586312 500.54064757 -31.31715437 499.83218148 -32.7890625 499.125 C-36.68699915 497.23417715 -40.53419261 495.25381846 -44.375 493.25 C-45.45418701 492.69554199 -45.45418701 492.69554199 -46.55517578 492.12988281 C-66.88280846 481.62619019 -86.71823946 468.83493375 -104.375 454.25 C-105.15689697 453.60804688 -105.15689697 453.60804688 -105.95458984 452.953125 C-121.32425387 440.29735906 -136.0441695 426.93802579 -148.375 411.25 C-149.59703125 409.73599609 -149.59703125 409.73599609 -150.84375 408.19140625 C-178.14492016 374.01477699 -191.74441592 331.19391696 -186.94921875 287.4609375 C-183.61742611 267.38841989 -174.71287116 248.54710647 -161.375 233.25 C-160.61832031 232.37214844 -159.86164063 231.49429688 -159.08203125 230.58984375 C-153.04526547 223.72390746 -153.04526547 223.72390746 -149.27923584 221.06115723 C-146.67947957 218.89720972 -146.40489469 218.38556923 -145.62896729 214.86682129 C-145.63055847 213.57336792 -145.63214966 212.27991455 -145.63378906 210.94726562 C-145.62637192 210.22924271 -145.61895477 209.51121979 -145.61131287 208.7714386 C-145.59342659 206.39892183 -145.6172866 204.02868881 -145.640625 201.65625 C-145.63444063 199.98733228 -145.62533608 198.31842309 -145.61346436 196.64953613 C-145.58870924 192.24492861 -145.59795198 187.84107819 -145.61602783 183.4364624 C-145.64215334 175.61391668 -145.60925966 167.79124137 -145.578125 159.96875 C-145.57553051 159.13361814 -145.57293602 158.29848629 -145.57026291 157.43804741 C-145.40231052 112.64649884 -133.6809991 73.53332961 -101.6875 41 C-89.17868389 28.62011364 -75.4123364 19.40360912 -59.375 12.25 C-58.18777344 11.70730469 -57.00054687 11.16460937 -55.77734375 10.60546875 C-37.90812381 2.92500969 -19.3333032 0.01522043 0 0 Z M-98.375 64.25 C-111.77210551 80.03508376 -120.52739455 100.14486447 -124.6875 120.3125 C-124.84702148 121.07852539 -125.00654297 121.84455078 -125.17089844 122.63378906 C-127.49842521 134.93936659 -127.52390311 147.5789077 -127.47265625 160.05859375 C-127.47078352 161.4047897 -127.46936368 162.75098634 -127.46836853 164.09718323 C-127.46461048 167.58389275 -127.45484049 171.0705584 -127.44366455 174.55725098 C-127.43330318 178.13777066 -127.42883988 181.71829766 -127.42382812 185.29882812 C-127.41320976 192.28256973 -127.39621774 199.26628274 -127.375 206.25 C-121.65289404 204.38236819 -115.99838249 202.39710968 -110.375 200.25 C-110.36913376 199.42109253 -110.36326752 198.59218506 -110.35722351 197.73815918 C-110.29887125 189.8551096 -110.22655917 181.97233065 -110.13928509 174.0895462 C-110.09490954 170.03872233 -110.05558542 165.98799148 -110.02856445 161.93701172 C-110.00219856 158.01400787 -109.96157361 154.09136867 -109.91181374 150.16859436 C-109.89536636 148.68584291 -109.88371657 147.20302874 -109.87738609 145.72019958 C-109.73249411 114.84715938 -98.38290226 87.81930515 -77.125 65.5625 C-53.58806408 42.9131301 -24.61331336 34.63773599 7.43359375 34.97265625 C36.36635595 35.73554294 63.13604758 49.65045003 83.00390625 70.296875 C102.42694901 92.18036282 110.81177183 118.54884143 111.0390625 147.515625 C111.05781946 149.04548127 111.07739605 150.57532769 111.0977478 152.10516357 C111.14859769 156.08996716 111.18847234 160.07480411 111.22589111 164.05975342 C111.26623017 168.14278088 111.31718444 172.22567523 111.3671875 176.30859375 C111.46338683 184.28897082 111.54796659 192.269415 111.625 200.25 C114.0816947 201.25419637 116.54018353 202.25350501 119 203.25 C119.69867188 203.53617188 120.39734375 203.82234375 121.1171875 204.1171875 C124.75385961 205.69524399 124.75385961 205.69524399 128.625 206.25 C128.67201871 198.67657637 128.70721283 191.10316845 128.72862434 183.52963066 C128.73891765 180.01026003 128.75280009 176.49099154 128.77587891 172.97167969 C129.07139343 126.60058097 122.94334609 88.08446181 89.5625 53.75 C73.38295535 37.57453131 53.50124662 27.4195819 31.625 21.25 C30.42359375 20.90839844 29.2221875 20.56679688 27.984375 20.21484375 C-20.02268541 9.04436974 -66.49939764 28.78460795 -98.375 64.25 Z M-40.375 61.25 C-41.29667969 61.69085938 -42.21835938 62.13171875 -43.16796875 62.5859375 C-50.35197785 66.2539365 -56.37020772 70.89013461 -62.375 76.25 C-63.23222656 77.01183594 -64.08945313 77.77367188 -64.97265625 78.55859375 C-80.25744494 92.94566688 -91.67982366 115.25268637 -92.49525452 136.36325073 C-92.49303391 137.4691153 -92.49081329 138.57497986 -92.48852539 139.71435547 C-92.48844986 140.97520966 -92.48837433 142.23606384 -92.48829651 143.53512573 C-92.48319109 144.8958134 -92.47797511 146.25650065 -92.47265625 147.6171875 C-92.47078912 149.02108713 -92.46936661 150.42498742 -92.46836853 151.82888794 C-92.46456658 155.50807522 -92.45475633 159.18722248 -92.44366455 162.86639404 C-92.43340031 166.62706969 -92.4288602 170.38775186 -92.42382812 174.1484375 C-92.41313179 181.51564317 -92.39608352 188.88281596 -92.375 196.25 C-91.39175247 196.28611137 -91.39175247 196.28611137 -90.38864136 196.32295227 C-87.38129874 196.43599743 -84.37426269 196.5558406 -81.3671875 196.67578125 C-80.3361792 196.71352661 -79.3051709 196.75127197 -78.24291992 196.79016113 C-47.85984613 198.029423 -22.89261372 211.00585518 -2.375 233.25 C-1.715 234.24 -1.055 235.23 -0.375 236.25 C2.96821955 235.13559348 3.68519619 234.27527657 5.875 231.625 C22.94606743 211.68514323 47.39064329 199.19163408 73.67301941 196.99528503 C76.71939045 196.83651488 79.76346451 196.71887665 82.8125 196.625 C83.85986328 196.58632812 84.90722656 196.54765625 85.98632812 196.5078125 C88.53239113 196.41480563 91.07846963 196.32896716 93.625 196.25 C93.69504999 188.27764383 93.74808645 180.30541999 93.78043652 172.33283043 C93.79597659 168.62932707 93.8169963 164.92603694 93.85131836 161.22265625 C93.88433477 157.63699934 93.9019402 154.05154523 93.90963173 150.46574783 C93.91773018 148.45759635 93.94107866 146.44952445 93.96488953 144.4414978 C93.96908384 121.11382114 85.21473732 99.53082747 69.625 82.25 C68.92632812 81.46882813 68.22765625 80.68765625 67.5078125 79.8828125 C52.31330644 63.79778593 29.60926772 52.78893477 7.38671875 52.01171875 C-9.93022527 51.69606017 -24.62251683 53.62998693 -40.375 61.25 Z M-150.6875 248.1875 C-156.73074026 256.17008237 -161.30695944 264.40364236 -164.6875 273.8125 C-164.93000488 274.48418213 -165.17250977 275.15586426 -165.42236328 275.84790039 C-168.71611265 285.53012689 -169.74249617 295.12386184 -169.6875 305.3125 C-169.68258545 306.40232178 -169.6776709 307.49214355 -169.67260742 308.61499023 C-168.99863016 355.65169049 -142.1978158 393.23314787 -109.84765625 424.96484375 C-104.91329131 429.73551423 -99.84989687 434.10257813 -94.375 438.25 C-93.06929248 439.27083209 -91.76469757 440.29308814 -90.4609375 441.31640625 C-66.44830479 460.055698 -40.21573925 475.14012182 -12.875 488.5 C-11.91400391 488.97808105 -10.95300781 489.45616211 -9.96289062 489.94873047 C-9.05732422 490.38330566 -8.15175781 490.81788086 -7.21875 491.265625 C-6.42662109 491.65008789 -5.63449219 492.03455078 -4.81835938 492.43066406 C1.00589875 494.38372264 5.29537983 492.87179995 10.5859375 490.2421875 C11.24524765 489.92496735 11.9045578 489.60774719 12.58384705 489.28091431 C14.72940074 488.24233853 16.86499558 487.18507442 19 486.125 C19.73165375 485.76607666 20.4633075 485.40715332 21.21713257 485.03735352 C39.01536887 476.30105743 56.40795989 466.6959399 72.625 455.25 C74.23761719 454.13818359 74.23761719 454.13818359 75.8828125 453.00390625 C89.62004401 443.45187366 102.55639647 432.83809431 114.625 421.25 C115.51251953 420.40332764 115.51251953 420.40332764 116.41796875 419.53955078 C147.07695865 390.13694732 169.81759112 352.39705365 171.02270508 309.00634766 C171.34874849 282.32679517 163.12224372 259.20186561 144.375 239.93359375 C126.93298722 222.91276594 104.82199017 213.82799319 80.52636719 213.94921875 C56.93493333 214.499915 36.50624073 224.59580764 20.14086914 241.19458008 C15.60966091 245.99971883 11.90530915 251.22339805 8.33203125 256.765625 C6.625 259.25 6.625 259.25 4.625 260.25 C-2.41930065 260.94288203 -2.41930065 260.94288203 -5.875 258.4375 C-7.38397858 256.66457467 -8.69484821 254.79543925 -10.03515625 252.890625 C-24.43039715 232.43578577 -43.41233637 219.21586599 -68.3671875 214.7578125 C-100.25176924 210.28860169 -130.27395679 223.68338166 -150.6875 248.1875 Z " fill="#385F71" transform="translate(255.375,-0.24999999999999997)"/>
<path d="M0 0 C8.04495995 7.21112533 13.32119682 17.92789532 14.0859375 28.671875 C14.33786923 41.28172084 11.73398093 51.27478787 3.84765625 61.32421875 C3.18765625 61.98421875 2.52765625 62.64421875 1.84765625 63.32421875 C1.64968161 67.21771994 1.74414199 70.66431536 2.34765625 74.51171875 C3.53452863 83.56162067 4.24403841 92.51928184 -1.15234375 100.32421875 C-6.10607338 106.16825002 -11.57618379 109.30857412 -19.15234375 110.32421875 C-31.14749335 111.17914768 -43.62782411 111.95684232 -53.52734375 104.19921875 C-58.36426841 99.49937292 -60.85578596 94.86572045 -61.421875 88.10546875 C-61.49377946 82.4054059 -61.03560537 76.95501158 -60.15234375 71.32421875 C-59.40584832 65.92864313 -59.40584832 65.92864313 -61.57421875 61.16796875 C-62.81246637 59.6651383 -64.06562678 58.17449343 -65.33203125 56.6953125 C-72.38549395 47.50764757 -72.76381803 36.41002104 -72.15234375 25.32421875 C-70.37543916 14.31644543 -63.89585832 4.14913967 -55.15234375 -2.67578125 C-36.81823056 -13.93137598 -17.13633142 -13.34208018 0 0 Z M-48.15234375 16.32421875 C-48.87421875 17.12859375 -49.59609375 17.93296875 -50.33984375 18.76171875 C-54.42963071 24.54383135 -54.81443192 30.44704482 -54.15234375 37.32421875 C-52.83751003 43.87448126 -49.05699891 48.88048299 -44.15234375 53.32421875 C-43.49234375 53.32421875 -42.83234375 53.32421875 -42.15234375 53.32421875 C-39.97463697 59.8573391 -41.13908299 66.7588232 -42.15234375 73.44921875 C-43.97612535 82.13348626 -43.97612535 82.13348626 -41.83984375 90.26171875 C-37.88115032 92.75422943 -33.78684597 92.54171783 -29.27734375 92.57421875 C-28.56964844 92.59484375 -27.86195313 92.61546875 -27.1328125 92.63671875 C-22.5901392 92.67055617 -19.79094587 92.06354658 -16.15234375 89.32421875 C-14.78988483 88.18321445 -14.78988483 88.18321445 -14.96484375 85.13671875 C-15.00042839 81.1725895 -15.5503137 77.36454894 -16.15234375 73.44921875 C-17.99911184 60.87232365 -17.99911184 60.87232365 -17.15234375 56.32421875 C-15.02734375 53.69921875 -15.02734375 53.69921875 -12.15234375 51.32421875 C-6.4057445 44.62219469 -3.61537143 38.85722272 -3.84375 29.91015625 C-4.66895218 22.99517087 -8.0278379 17.50376911 -13.1015625 12.83203125 C-18.29226014 9.0156326 -24.57292649 6.55484126 -31.078125 6.9375 C-38.0045897 8.22887478 -43.6143618 10.8519464 -48.15234375 16.32421875 Z " fill="#385F71" transform="translate(285.15234375,308.67578125)"/>
</svg>
